<?xml version="1.0" encoding="UTF-8" standalone="no"?>
<svg xmlns="http://www.w3.org/2000/svg"
     xmlns:xlink="http://www.w3.org/1999/xlink"
     xmlns:rdf="http://www.w3.org/1999/02/22-rdf-syntax-ns#"
     xmlns:dc="http://purl.org/dc/elements/1.1/"
     xmlns:cc="http://creativecommons.org/ns#"
     width="802.1" height="701" viewBox="83 -82.7 1102.9 963.9">
  <metadata>
    <rdf:RDF>
      <cc:Work
         rdf:about="">
        <dc:format>image/svg+xml</dc:format>
        <dc:type
           rdf:resource="http://purl.org/dc/dcmitype/StillImage" />
        <dc:title>La cycle de vie du foncier économique</dc:title>
        <dc:date>20191130</dc:date>
        <dc:creator>
          <cc:Agent>
            <dc:title>Sylvain Grisot, Sylvain Comte</dc:title>
          </cc:Agent>
        </dc:creator>
        <dc:rights>
          <cc:Agent>
            <dc:title>Licence Ouverte</dc:title>
          </cc:Agent>
        </dc:rights>
        <dc:publisher>
          <cc:Agent>
            <dc:title>dixit.net, DREAL Normandie</dc:title>
          </cc:Agent>
        </dc:publisher>
        <dc:language>fr-FR</dc:language>
        <dc:description>Une vision d'un cycle de vie durable des zones d'activités économiques</dc:description>
      </cc:Work>
    </rdf:RDF>
  </metadata>
  <defs>
    <filter id="turb" color-interpolation-filters="sRGB">
      <feTurbulence numOctaves="4" seed="96" baseFrequency="0.025 0.025" result="turbulence"/>
      <feDisplacementMap in="SourceGraphic" in2="turbulence" scale="2.1" yChannelSelector="G" xChannelSelector="R"/>
    </filter>
    <marker orient="auto" refY="0" refX="0" id="marker" overflow="visible">
      <path d="M-5-2l6 2-6 2v-4z" fill-rule="evenodd" stroke="#000" stroke-width=".36" stroke-linejoin="round"/>
    </marker>
    <linearGradient id="lg2">
      <stop offset="0" stop-color="#79c6f0"/>
      <stop offset="1" stop-color="#79c6f0" stop-opacity="0"/>
    </linearGradient>
    <linearGradient id="lg1">
      <stop offset="0" stop-color="#ff8080"/>
      <stop offset="1" stop-color="#ff8080" stop-opacity="0"/>
    </linearGradient>
    <linearGradient xlink:href="#lg1" id="lgA" x1="63.1" y1="812.4" x2="-152.9" y2="816.6" gradientUnits="userSpaceOnUse"/>
    <linearGradient xlink:href="#lg2" id="lgB" x1="76.4" y1="-127.8" x2="-177.1" y2="-119.8" gradientUnits="userSpaceOnUse"/>
  </defs>
  <path transform="matrix(1.12287 0 0 1.12292 -132 -388)" fill="#f95" stroke="#000" stroke-width="3.4" stroke-linecap="round" filter="url(#turb)" d="M518 881h318v110H518z"/>
  <path d="M507 327c32-9 64 0 96-3 23-2 45-1 68 1l42-2" fill="none" stroke="#41e7fa" stroke-width="26.8" stroke-linecap="round" stroke-linejoin="round"/>
  <path fill="#9bb41b" stroke="#000" stroke-width="3.4" stroke-linecap="round" filter="url(#turb)" d="M459 89h318v110H459z"/>
  <text y="130.4" x="504.1" style="line-height:1.25;-inkscape-font-specification:'Segoe Print'" font-weight="400" font-size="40.3" font-family="Segoe Print" letter-spacing="0" word-spacing="0" filter="url(#turb)">
    <tspan style="-inkscape-font-specification:'Segoe Print'" y="130.4" x="504.1">Gestion &amp;</tspan><tspan style="-inkscape-font-specification:'Segoe Print'" y="180.8" x="504.1">Exploitation</tspan>
  </text>
  <path d="M947 327c-20-135-152-199-152-199" fill="none" stroke="#000" stroke-width="4.8" marker-end="url(#marker)" filter="url(#turb)"/>
  <path transform="matrix(1.25491 0 0 .81119 -956 84)" fill="#fac141" stroke="#000" stroke-width="3.4" stroke-linecap="round" filter="url(#turb)" d="M1357 331h318v110h-318z"/>
  <text y="407" x="757.6" style="line-height:1.25;-inkscape-font-specification:'Segoe Print'" font-weight="400" font-size="40.3" font-family="Segoe Print" letter-spacing="0" word-spacing="0" filter="url(#turb)">
    <tspan style="-inkscape-font-specification:'Segoe Print'" y="407" x="757.6">Commercialisation</tspan>
  </text>
  <text y="648.7" x="465.4" style="line-height:1.25;-inkscape-font-specification:'Segoe Print'" font-weight="400" font-size="40.3" font-family="Segoe Print" letter-spacing="0" word-spacing="0" filter="url(#turb)">
    <tspan style="-inkscape-font-specification:'Segoe Print'" y="648.7" x="465.4">Programmation</tspan><tspan style="-inkscape-font-specification:'Segoe Print'" y="699" x="465.4">&amp; Conception</tspan>
  </text>
  <path transform="matrix(1.12777 0 0 .66256 301 263)" d="M-161 758h318v109h-318" fill="url(#lgA)" stroke="#000" stroke-width="3.4" stroke-linecap="round" filter="url(#turb)"/>
  <text y="812.4" x="137.8" style="line-height:1.25;-inkscape-font-specification:'Segoe Print'" font-weight="400" font-size="40.3" font-family="Segoe Print" letter-spacing="0" word-spacing="0" filter="url(#turb)">
    <tspan style="-inkscape-font-specification:'Segoe Print'" y="812.4" x="137.8">Artificialisation</tspan>
  </text>
  <path transform="matrix(1.01783 0 0 .6865 326 117)" d="M-205-175h318v110h-318" fill="url(#lgB)" stroke="#000" stroke-width="3.4" stroke-linecap="round" filter="url(#turb)"/>
  <text y="47.6" x="140.3" style="line-height:1.25;-inkscape-font-specification:'Segoe Print'" font-weight="400" font-size="40.3" font-family="Segoe Print" letter-spacing="0" word-spacing="0" filter="url(#turb)">
    <tspan style="-inkscape-font-specification:'Segoe Print'" y="47.6" x="140.3">Reconversion</tspan>
  </text>
  <path transform="matrix(1.0201 0 0 .65112 511 180)" fill="#a090ee" stroke="#000" stroke-width="3.4" stroke-linecap="round" filter="url(#turb)" d="M-349 277h317v110h-317z"/>
  <text y="407.6" x="167.5" style="line-height:1.25;-inkscape-font-specification:'Segoe Print'" font-weight="400" font-size="40.3" font-family="Segoe Print" letter-spacing="0" word-spacing="0" filter="url(#turb)">
    <tspan style="-inkscape-font-specification:'Segoe Print'" y="407.6" x="167.5">Requalification</tspan>
  </text>
  <path d="M477 263C457 127 326 64 326 64" transform="rotate(-105 410 209)" fill="none" stroke="#000" stroke-width="4.8" marker-end="url(#marker)" filter="url(#turb)"/>
  <path d="M1119 693c-20-136-152-200-152-200" transform="rotate(75 980 469)" fill="none" stroke="#000" stroke-width="4.8" marker-end="url(#marker)" filter="url(#turb)"/>
  <path d="M407 590c-20-136-151-200-151-200" transform="rotate(-180 346 527)" fill="none" stroke="#000" stroke-width="4.8" marker-end="url(#marker)" filter="url(#turb)"/>
  <path d="M962 1149c-21-136-152-199-152-199" transform="scale(-.8263) rotate(-75 -1212 1089)" fill="none" stroke="#000" stroke-width="4.8" marker-end="url(#marker)" filter="url(#turb)"/>
  <path transform="matrix(.55828 -.57783 .48274 .66824 -460 -139)" d="M962 1149c-17-106-143-201-143-201" fill="none" stroke="#000" stroke-width="4.8" marker-end="url(#marker)" filter="url(#turb)"/>
  <text y="329.6" x="506.4" style="line-height:1.25;-inkscape-font-specification:'Segoe Print'" font-weight="400" font-size="40.3" font-family="Segoe Print" letter-spacing="0" word-spacing="0" filter="url(#turb)">
    <tspan style="-inkscape-font-specification:'Segoe Print'" y="329.6" x="506.4">Diagnostic</tspan>
  </text>
  <path d="M487 485c39-11 80-1 119-4 29-2 57-1 85 1 17 1 34-1 52-2" fill="none" stroke="#f28ffc" stroke-width="33.1" stroke-linecap="round" stroke-linejoin="round" stroke-opacity=".8"/>
  <text y="490.1" x="484.8" style="line-height:1.25;-inkscape-font-specification:'Segoe Print'" font-weight="400" font-size="40.3" font-family="Segoe Print" letter-spacing="0" word-spacing="0" filter="url(#turb)">
    <tspan style="-inkscape-font-specification:'Segoe Print'" y="490.1" x="484.8">Planification</tspan>
  </text>
  <path d="M708 399c-27-13-56-1-84-5-20-2-40 0-59 2-13 0-25-1-37-3" fill="none" stroke="#faf441" stroke-width="30.5" stroke-linecap="round" stroke-linejoin="round"/>
  <text y="409.7" x="524.6" style="line-height:1.25;-inkscape-font-specification:'Segoe Print'" font-weight="400" font-size="40.3" font-family="Segoe Print" letter-spacing="0" word-spacing="0" filter="url(#turb)">
    <tspan style="-inkscape-font-specification:'Segoe Print'" y="409.7" x="524.6">Stratégie</tspan>
  </text>
</svg>
